<svg xmlns="http://www.w3.org/2000/svg" xml:space="preserve" width="62.1999mm" height="67.2974mm" version="1.1" style="shape-rendering:geometricPrecision; text-rendering:geometricPrecision; image-rendering:optimizeQuality; fill-rule:evenodd; clip-rule:evenodd" viewBox="0 0 6218.94 6728.6" xmlns:xlink="http://www.w3.org/1999/xlink" xmlns:xodm="http://www.corel.com/coreldraw/odm/2003">
  <defs>
    <style type="text/css">
      .fil0 { fill: #FEFEFE }
    </style>
  </defs>
  <g id="Layer_x0020_1">
    <metadata id="CorelCorpID_0Corel-Layer"></metadata>
    <g id="_2254431855312">
      <path class="fil0" d="M3667.8 5935.26l811.15 0 0 493.75 -811.15 0 0 -493.75zm881.69 -282.14l-846.42 0c0,-200.1 47.21,-459.71 84.57,-656.04 55.46,-291.46 145.54,-294.2 328.2,-447.67l618.55 -545.28c99.38,-97.25 85.08,-113.94 238.3,-149.63 38.42,68.37 17.95,5.45 36.32,68.82 21.84,75.26 21.73,19.04 3.01,82.45 -1.08,3.64 -94.82,161.81 -102.22,173.28 -63.83,99 -149.32,217.55 -227.58,301.93l-281.91 249.77c-119.55,104.4 -182.85,694.31 581.25,-162.04 522.86,-585.99 273.27,-731.35 273.27,-890.54l443.03 -654.93c95.19,-79.39 227.05,-11.64 227.05,55.38 0,235.78 -109.65,591.5 -161.32,826.16 -170.02,772.13 -102.92,923.23 -634.57,1340.39 -92.22,72.37 -493.08,407.96 -579.52,407.96zm-1163.82 211.6c0,1059.11 -244.88,846.42 1269.63,846.42 226.93,0 141.07,-648.16 141.07,-881.68 89.64,-23.94 635.13,-450.01 749.89,-555 396.71,-362.88 536.01,-1391.62 660.24,-1987.84 80.65,-387.02 -243.11,-703.64 -609.72,-537.83 -135.22,61.16 -208.9,218.27 -292.54,343.95 -51.68,77.67 -78.03,116.81 -126.96,190.45 -36.35,54.69 -104.77,175.43 -138.19,214.49 -198.53,232.07 -10.23,-172.13 -603.94,383.54 -80.57,75.41 -112.61,82.68 -194.18,158.5 -215.33,200.19 -550.73,420.96 -668.48,671.68 -96.32,205.08 -186.83,853.44 -186.83,1153.33z"/>
      <path class="fil0" d="M1692.83 6041.06c0,-81.26 24.54,-105.8 105.8,-105.8l740.61 0 0 493.75 -846.42 0 0 -387.94zm-1410.69 -2962.46c0,-50.18 139.72,-185.58 290.92,25.46 588.9,821.95 308.62,540.6 308.62,856.24 0,222.03 987.48,1536.49 987.48,881.68 0,-122.28 -172.71,-154.02 -378.07,-397.81 -332.14,-394.31 -496.14,-922.32 140.04,-316.38 239.77,228.39 734.84,551.4 793.24,829.07 41.36,196.64 49,558.98 114.88,696.26 -199.83,0 -400.05,-1.25 -599.83,0.28 -283.29,2.18 -317.07,24.98 -483.44,-116.1 -831.28,-704.82 -728.77,-404.15 -969.24,-1428.94 -44.48,-189.56 -204.61,-856.08 -204.61,-1029.76zm-282.14 0c0,269 39.45,346.3 90.79,579.29 312.94,1420.24 170.86,1329.42 1139.29,2070.03 197.21,150.82 185.7,116.2 181.16,453.66 -8.94,663.34 -143.16,529.55 1304.34,529.55 186.34,0 105.8,-399.36 105.8,-916.95 0,-258.54 -99,-929.59 -211.63,-1128.53 -82.83,-146.31 -197.76,-224.45 -325.9,-344.17l-739.89 -635.53c-384.56,-341.67 -47.88,324.38 -690.47,-649.69 -172.07,-260.85 -178.35,-310.34 -500.82,-310.34 -177.31,0 -352.67,175.36 -352.67,352.67z"/>
      <path class="fil0" d="M2609.78 433.56c-184.3,15.34 -78.41,61.63 -203.05,-41.43 -264.07,-218.34 -380.43,-62.94 -581.71,138.35 -512.67,512.67 -45.65,533.43 -96.92,678.97 -56.61,212.01 -119.09,34.33 -313.68,144.8 -188.38,106.93 -235.33,889.85 11.28,968.75 221.91,71 152.31,-51.85 302.4,120.81 -74.65,279.57 -415.55,204.2 61.68,678.94 83.86,83.42 226.55,273.28 361.53,273.28 259.46,0 651.86,-493.74 246.87,-493.74 -89.75,0 -162.57,119.88 -246.87,176.33l-290.44 -273.83c94.49,-135.13 184.64,-138.99 184.64,-290.44 0,-116.27 -105.54,-270.72 -141.07,-423.21l-352.68 -35.26 0 -423.21 352.68 -35.26c161.48,-693.15 248.58,-281.46 -35.27,-705.35l273.84 -290.44c307.34,214.9 95.29,248.61 546.93,88.46 233.99,-82.99 201.99,-97.97 201.99,-397.56l423.21 0c0,292.07 -30.05,299.77 179.59,384.7 259.51,105.11 315.85,210.92 525.76,-102.55 103.86,69.55 120.3,126.54 352.67,282.14 -196.75,293.81 -289.02,104.6 -129.85,553.05 77.7,218.87 57.59,187.57 411.99,187.57l0 458.47c-354.4,0 -334.29,-31.31 -411.99,187.56 -151.69,427.39 -80.02,257.06 94.58,517.78l-289.62 310.07c-115.37,-73.75 -121.47,-168.99 -274.66,-168.99 -322.05,0 -9.15,493.74 317.41,493.74 70.23,0 564.28,-437.1 564.28,-599.54 0,-116.66 -26.09,-132.62 -82.97,-203.26 -20.89,-25.94 -93.96,-76.2 -58.11,-149.42 64.45,-131.61 67.24,-28.49 258.2,-94.47 238.19,-82.31 165.01,-353.98 165.01,-787.21 0,-182.01 -223.84,-211.6 -423.21,-211.6 -15.34,-184.3 -61.64,-78.41 41.42,-203.06 218.35,-264.06 62.95,-380.42 -138.34,-581.7 -512.67,-512.67 -533.43,-45.65 -678.97,-96.92 -184.39,-49.23 -69.97,-66.65 -121.39,-266.56 -69.29,-269.43 -347.91,-191.92 -795.57,-191.92 -182.01,0 -211.6,223.84 -211.6,423.21z"/>
      <path class="fil0" d="M2398.18 1985.31c31.7,47.34 19.88,32.32 64.74,76.34l76.34 64.73c213.31,-112.87 248.36,-235.59 423.21,-352.67 0,523.39 -63.42,1516.13 35.26,1939.7l211.6 0c98.68,-423.57 35.26,-1416.31 35.26,-1939.7 164.26,109.99 237.49,301.19 458.48,352.67l105.8 -141.07c-89.96,-170.01 -173.92,-226.85 -308.6,-361.49 -504.85,-504.7 -361.63,-435.03 -757.55,-34.57 -109.74,111 -303.63,242.83 -344.55,396.06z"/>
    </g>
  </g>
</svg>
