<svg xmlns="http://www.w3.org/2000/svg" xml:space="preserve" width="38.7274mm" height="29.7211mm" version="1.1" style="shape-rendering:geometricPrecision; text-rendering:geometricPrecision; image-rendering:optimizeQuality; fill-rule:evenodd; clip-rule:evenodd" viewBox="0 0 3859.58 2962.01" xmlns:xlink="http://www.w3.org/1999/xlink" xmlns:xodm="http://www.corel.com/coreldraw/odm/2003">
  <defs>
    <style type="text/css">
      .fil0 { fill: #FEFEFE }
    </style>
  </defs>
  <g id="Layer_x0020_1">
    <metadata id="CorelCorpID_0Corel-Layer"></metadata>
    <g id="_2254046720816">
      <path class="fil0" d="M502.54 2339.47c-9.37,80.32 -10.38,552.89 3.59,622.55l3353.46 -1.48 -2.36 -623.32 -3354.69 2.25z"/>
      <path class="fil0" d="M1463.27 2167.6c232.31,26.67 1828.03,-8.69 2308.3,4.47 5.25,0.14 27.57,0.91 31.57,0.45 64.15,-7.37 43.56,-27.65 42.76,-60.91 -0.62,-26.29 -1.9,-50.91 -1.78,-77.81 0.52,-122.82 6.37,-358.57 -16.25,-457.57l-2363.01 -0.07 -1.59 591.44z"/>
      <path class="fil0" d="M2014.34 844.26l59.99 -15.5 256.71 -772.41c-37.47,1.3 -710.68,135.48 -812.88,170.38l-29.66 15.9c-1.12,-2.17 -4.12,3.95 -6.21,5.89 32.4,46.85 105.19,106.82 124.24,156.21l-1212.66 1097.51c-67.18,56.37 -372,322.88 -393.87,364.07 25.28,41.7 260.07,301.4 289.14,320.37l808.71 -727.41c2.85,-2.55 767.39,-699.3 809.05,-719.77 39.52,25.67 68.61,82.87 107.43,104.76z"/>
      <polygon class="fil0" points="2309,1409.16 3856.87,1405.71 3855.03,786.61 2309.89,787.56 2309.69,1286.14"/>
      <polygon class="fil0" points="3058.51,623.34 3851.35,625.79 3852.8,1.37 3058.79,0"/>
      <path class="fil0" d="M2014.34 844.26c14.73,33.55 -7.77,4.93 15.01,28.76 16.3,17.05 1.25,3.06 22.6,14.49l22.37 -58.75 -59.99 15.5z"/>
    </g>
  </g>
</svg>
