   <svg xmlns="http://www.w3.org/2000/svg" xml:space="preserve" width="26.8578mm"
                                height="34.4723mm" version="1.1"
                                style="shape-rendering:geometricPrecision; text-rendering:geometricPrecision; image-rendering:optimizeQuality; fill-rule:evenodd; clip-rule:evenodd"
                                viewBox="0 0 2672.64 3430.37" xmlns:xlink="http://www.w3.org/1999/xlink"
                                xmlns:xodm="http://www.corel.com/coreldraw/odm/2003" id="1749211590"
                                class="svg u_1749211590" data-hover-effect="zoomout" data-icon-custom="true"
                                data-icon-name="industry icon.svg">
                                <defs>
                                    <style type="text/css">
                                    .fil0-1239354036 {
                                        fill: #FEFEFE
                                    }
                                    </style>
                                </defs>
                                <g id="Layer_x0020_1">
                                    <metadata id="CorelCorpID_0Corel-Layer"></metadata>
                                    <g id="_2254286947200">
                                        <path class="fil0-1239354036"
                                            d="M716.65 760.97c0,50.22 74.27,173.95 99.45,224.31 29.25,58.49 80.71,167.35 109.01,217.91 45.46,81.21 92.28,181.29 135.34,267.76 6.09,12.23 9.32,15.23 15.67,25.59 6.38,10.4 37.24,213.18 40.17,245.49l29.12 294.64c1.86,22.3 4.52,50.44 7.89,74.62 7.15,51.2 8.46,98.81 14.96,150.1 17.96,141.71 27.04,304.77 44.43,444.38 3.61,28.99 2.9,43.09 20.45,62.08 12.35,13.35 33.16,24.52 58,24.52l120.61 0c41.97,0 70.29,-31.29 73.02,-79.35 6.81,-120.09 32.67,-286.82 41.36,-415.7 1.44,-21.41 4.22,-46.01 7.17,-69l49.85 -486.58c86.13,0 149.97,-23.86 165.68,-117.02 4.49,-26.61 -62.95,-455.2 -68.74,-490.94 -6.48,-40.04 -1.46,-66.54 -37.37,-102.3 -24.48,-24.38 -56.38,-38.82 -104.01,-38.82l-374.54 0c-36.71,0 -58.53,6.35 -82.52,19.05l-148.14 -296.23c-44.08,-79.52 -134.06,-78.21 -183.28,-28.84 -16.06,16.1 -33.59,44.19 -33.59,74.31z">
                                        </path>
                                        <path class="fil0-1239354036"
                                            d="M935.65 3430.37l803.04 0c66.29,0 120.61,-49.03 98.78,-121.01 -26.19,-86.4 -50.17,-184.57 -76.18,-272.97 -10.24,-34.77 -9.32,-42.93 -15.06,-64.29 -9.58,-35.69 -43.51,-68.63 -86.9,-68.63l-647.52 0c-28.69,0 -55.48,16.51 -68.97,32.6 -23.98,28.6 -19.33,50.32 -27.31,77.44l-88.98 322.07c-1.5,26.99 14.14,53.58 30.44,68.69 18.97,17.57 42.97,26.1 78.64,26.1z">
                                        </path>
                                        <path class="fil0-1239354036"
                                            d="M408.76 1706.85c0,19.4 14.65,37.32 26.21,46.79 17.47,14.31 32.52,13.51 62.66,13.51 3.98,17.09 7.03,46.35 8.96,64.05l23.7 204.83c5.3,42.35 10.13,87.46 15.87,133.3 9.75,77.94 4.6,86.62 91.12,86.62 63.25,0 60.2,-29.21 66.1,-83.09l48.17 -405.72 31.74 0c20.73,0 57.13,-27.63 57.13,-63.48 0,-34.74 -19.8,-190.31 -24.82,-235.45 -6.02,-54.17 -6.91,-135.05 -31.69,-165.11 -8.68,-10.53 -26.46,-21.59 -45.06,-21.59l-225.35 0c-35.42,0 -63.01,31.72 -66.25,63.89 -4.22,41.94 -9.55,80.2 -13.02,120.3 -4.65,53.91 -25.47,202.91 -25.47,241.14z">
                                        </path>
                                        <path class="fil0-1239354036"
                                            d="M1897.39 1767.15l28.57 0 14.95 127.88c5.61,44.84 8.93,83.46 14.54,128.3 5.03,40.12 11.19,84.51 15.25,127.59 10.94,116.16 11.08,101.86 117.14,101.86 19.68,0 32.66,-14.79 36.39,-33.44 3.98,-19.83 5.57,-46.17 7.78,-65.23l44.71 -386.97c31.97,0 57.8,3.37 78.85,-29.06 16.82,-25.9 12.94,-31.62 9.93,-66.08 -4.27,-48.91 -10.76,-98.35 -16.35,-148.7l-16.68 -145.21c-3.69,-26.57 -4.88,-96.6 -68.45,-96.6l-225.36 0c-58.34,0 -63.56,61.58 -67.22,94.65l-33.42 293.52c-5.01,38.97 -5.37,63.12 28.38,87.19 8.85,6.32 16.79,10.27 30.99,10.27z">
                                        </path>
                                        <path class="fil0-1239354036"
                                            d="M2294.15 1697.33c0,26.63 29.57,53.95 57.14,53.95l22.22 0 39.88 341c11.97,86.47 -2.68,84.33 99.77,84.33 16.43,0 29.97,-12.15 33.6,-26.71l20.08 -170.35c4.45,-38.4 9.59,-74.75 13.26,-113.71 3.39,-36.1 12.4,-75.84 12.4,-114.56 23.95,0 41.64,2.04 60.87,-15.3 33.26,-29.98 14.66,-92.83 8.39,-149.18 -2.23,-20.13 -21.04,-204.13 -26.72,-220.85 -11.05,-32.51 -38.6,-43.16 -80.62,-43.16l-142.84 0c-99.82,0 -81.42,63.19 -93.39,151.01 -5.2,38.21 -7.41,72.41 -12.71,111.07l-11.34 112.46z">
                                        </path>
                                        <path class="fil0-1239354036"
                                            d="M59.61 1751.28l19.05 0c0.35,15.74 4.65,39.75 6.62,56.87 2.16,18.81 4.35,35.83 6.64,56.84l27.45 226.48c10.01,91.65 5.07,85.14 98.96,85.14 39.16,0 38.3,-52.12 41.17,-85.79l26.83 -227.1c4.93,-36.2 7.04,-80.28 14.53,-112.44 52.17,0 81.87,-19.33 76.58,-73.18 -8.62,-87.78 -25.54,-201.42 -31.86,-282.6 -4.21,-54.05 -27.6,-72.71 -85.99,-72.71 -47.97,0 -169.46,-7.67 -199.53,13.13 -7.5,5.18 -13.03,11.57 -18.2,19.88 -6.47,10.39 -6.41,15.66 -7.94,30.15l-31.14 273.59c-2.68,27.85 -6.63,42.73 6.05,63.2 8.89,14.36 27.59,28.55 50.79,28.55z">
                                        </path>
                                        <path class="fil0-1239354036"
                                            d="M1351.46 910.16c186.91,0 295.43,-241 135.78,-380.19 -134.45,-117.22 -353.06,-18.28 -353.06,164.35 0,118.76 95.09,215.84 217.28,215.84z">
                                        </path>
                                        <path class="fil0-1239354036"
                                            d="M615.08 1243.43c39.22,0 62.39,-3.34 92.9,-34.05 70.88,-71.36 24.79,-197.65 -86.55,-197.65 -33.35,0 -59.68,16.26 -77.9,33.21 -44.78,41.65 -46.67,114.68 -5.45,161.23 15.16,17.11 45.92,37.27 77,37.27z">
                                        </path>
                                        <path class="fil0-1239354036"
                                            d="M1935.49 1122.82c0,35.81 8.9,61.59 30.89,83.37 36.57,36.21 51.52,37.24 99.25,37.24 47.35,0 101.57,-54.29 101.57,-101.56l0 -22.22c0,-55.47 -53.7,-107.92 -114.27,-107.92 -62.82,0 -117.44,50.34 -117.44,111.09z">
                                        </path>
                                        <path class="fil0-1239354036"
                                            d="M2484.6 1294.22c99.7,0 147.74,-144.51 40.31,-195.84 -82.81,-39.57 -174.61,50.9 -134.57,134.57 15.48,32.36 48.5,61.27 94.26,61.27z">
                                        </path>
                                        <path class="fil0-1239354036"
                                            d="M88.18 1179.95c0,31.89 3.72,63.32 31.17,86.28 64.37,53.85 139.24,20.36 162.5,-32.26 29.79,-67.39 -13.26,-137.59 -86.99,-144.87 -37.52,-3.69 -75.91,21.06 -94.73,52 -5.25,8.63 -11.94,25.98 -11.94,38.85z">
                                        </path>
                                        <path class="fil0-1239354036"
                                            d="M919.78 170.59c0,21.99 99.59,185.63 114.09,209.68 22.24,36.88 24.08,56.95 63.67,56.95 10.52,0 21.76,-7.74 27.29,-13.97 31.3,-35.3 -14.57,-82.93 -44.25,-137.3l-78.14 -134.52c-28.15,-42.51 -82.65,-19.2 -82.65,19.16z">
                                        </path>
                                        <path class="fil0-1239354036"
                                            d="M1564.12 386.43c0,63.34 60.35,62.27 81.26,27.31l119.75 -207.18c23.75,-39.18 14.6,-77.22 -35.96,-77.22 -28.51,0 -52.83,54.27 -69.83,85.7l-78.01 134.66c-7.11,12.02 -17.22,26.49 -17.22,36.74z">
                                        </path>
                                        <path class="fil0-1239354036"
                                            d="M1307.02 37.29l0 269.79c0,21.85 24.82,37.19 44.02,36.2 20.93,-1.06 41.69,-18.32 41.69,-39.38l0 -260.27c0,-58.15 -85.71,-56.02 -85.71,-6.35z">
                                        </path>
                                    </g>
                                </g>
                            </svg>