<svg xmlns="http://www.w3.org/2000/svg" xml:space="preserve" width="29.8155mm" height="34.0749mm" version="1.1" style="shape-rendering:geometricPrecision; text-rendering:geometricPrecision; image-rendering:optimizeQuality; fill-rule:evenodd; clip-rule:evenodd" viewBox="0 0 2968.4 3392.46" xmlns:xlink="http://www.w3.org/1999/xlink" xmlns:xodm="http://www.corel.com/coreldraw/odm/2003">
  <defs>
    <style type="text/css">
      .fil0 { fill: #FEFEFE }
    </style>
  </defs>
  <g id="Layer_x0020_1">
    <metadata id="CorelCorpID_0Corel-Layer"></metadata>
    <g id="_2254048073120">
      <path class="fil0" d="M397.56 2782.88l689.09 0c-1.27,57.05 -17.49,68.69 -41.89,103.87 -116.46,167.92 -344.38,213.62 -528.34,82.07 -57.26,-40.94 -107.78,-99.6 -118.85,-185.94zm1470.94 0l715.6 0c-28.44,59.28 -48.51,123.58 -124.35,180.45 -145.24,108.89 -313.16,109.88 -459.15,5.49 -82.76,-59.19 -85.42,-97.71 -132.1,-185.94zm410.81 -609.58c27.36,31.48 85.95,196.79 107.89,249.89 15.95,38.61 34.3,78.74 51.14,121.13 16.22,40.8 34.49,93.98 52.99,132.53l-212.02 0 0 -503.56zm-106.02 0l0 503.56 -212.03 0c41.55,-86.58 175.78,-461.86 212.03,-503.56zm-1378.18 0l212.03 503.56 -212.03 0 0 -503.56zm-106.02 0l0 503.56 -212.02 0c41.55,-86.58 175.78,-461.86 212.02,-503.56zm768.6 -583.09c0,-18.37 46.03,-54.67 46.03,0 0,54.67 -46.03,18.38 -46.03,0zm-106.01 -13.25c0,66.08 0.02,73.5 44.19,114.83 50.73,47.45 35.31,11.31 35.31,110.45l-887.87 0c-65.43,0 -34.63,71.15 -26.5,106.02l145.76 0c-12.66,54.38 -50.57,133.01 -73.83,191.19 -27.47,68.68 -46.81,122.48 -76.45,188.58 -28.94,64.54 -51.67,121.56 -78.86,186.18l-75.64 202.64c-52.32,0 -53.77,4.17 -92.76,13.25 0,276.14 228.44,463.82 437.31,463.82 155.95,0 259.58,-13.63 374.64,-128.92 71.74,-71.89 142.17,-166.59 142.17,-295.13 0,-52.07 -39.28,-53.02 -92.76,-53.02l-304.79 -768.59 609.58 0 0 1179.4c0,117.69 -265.04,-53.5 -265.04,106.01 0,30.53 9.22,39.75 39.76,39.75l543.32 0c70.62,0 70.62,-106.01 0,-106.01l-212.03 0 0 -1219.16 609.58 0 -304.79 768.59c-83.02,0 -92.76,-10.16 -92.76,66.27 0,322.56 500.9,584.06 798.81,295.24 77.06,-74.71 155.31,-172.6 155.31,-308.49 0,-52.07 -39.29,-53.02 -92.76,-53.02 -15.69,-67.34 -47.05,-123.97 -73.84,-191.18l-153.33 -376.74c-21.01,-52.6 -64.66,-145.06 -77.62,-200.67 95.2,0 159.02,23.96 159.02,-53.02 0,-31.01 -21.98,-53.01 -53.01,-53.01l-874.61 0c0,-182.13 79.51,-55.81 79.51,-225.28 0,-160.08 -265.04,-160.08 -265.04,0z"/>
      <path class="fil0" d="M1497.46 1219.17c-490.26,0 -757.91,-588.75 -407.64,-937.71 309.71,-308.53 747.06,-167.17 893.87,146.68 100.68,215.26 55.74,455.35 -105.09,615.58 -97.14,96.78 -241.02,175.44 -381.13,175.44zm-78.42 -1219.16l133.68 0c74.53,7.83 149.81,29.06 223.2,66.08 38.49,19.41 63.46,31.84 100.38,58.65 198.52,144.17 270.5,330.24 270.5,577.61 0,153.4 -85.3,328.13 -190.01,432.83l-179.19 125.6c-61.55,28.4 -148.22,64.4 -240.38,64.4 -308.15,0 -514.06,-100.91 -653.91,-379.73 -64.64,-128.88 -61.69,-176.12 -61.69,-322.62 0,-317 275.66,-588.97 597.42,-622.83z"/>
      <path class="fil0" d="M1921.51 1298.69c348.64,0 606.71,52 766.44,386.46 140.58,294.34 5.24,788.41 98.09,975.31 10.75,21.65 13.83,36.34 23.34,56.17 29.44,-21.57 53.01,-55.81 53.01,-106.02l0 -689.09c0,-371.99 -361.96,-728.85 -702.34,-728.85 -150.5,0 -112.16,-10.76 -175.9,49.38 -23.9,22.56 -44.88,32.41 -62.63,56.64z"/>
      <path class="fil0" d="M106.02 1921.52l0 675.84c0,64.72 13.94,93.11 53.01,119.27 8.71,-18.16 9.65,-27.25 19.03,-47.23 40.99,-87.35 35.09,-45.78 34.08,-177.95 -3.44,-450.13 -60.25,-871.65 339.89,-1104.55 134.36,-78.2 286.77,-88.21 494.87,-88.21 -8.01,-11.98 -102.18,-106.02 -132.52,-106.02 -240.2,0 -440.64,62.29 -593.31,228.3 -97.48,106.01 -215.04,302.55 -215.04,500.55z"/>
      <path class="fil0" d="M874.61 3299.7c0,53.47 0.94,92.76 53.02,92.76l1113.14 0c70.63,0 70.63,-106.02 0,-106.02 -156.98,0 -1090.74,-16.01 -1166.15,13.26z"/>
      <path class="fil0" d="M265.04 795.12c30.65,-57.93 -4.92,-22.36 53.01,-53.02 57.93,30.65 22.35,-4.92 53.01,53.02 -30.65,57.92 4.93,22.35 -53.01,53.01 -57.92,-30.65 -22.35,4.92 -53.01,-53.01zm-106.01 -39.76c0,131.72 31.94,198.78 185.52,198.78 165.21,0 205.69,-318.04 -39.75,-318.04 -78.79,0 -145.76,79.87 -145.76,119.26z"/>
      <path class="fil0" d="M2597.35 795.12c30.65,-57.93 -4.93,-22.36 53.01,-53.02 57.92,30.65 22.35,-4.92 53.01,53.02 -30.65,57.92 4.92,22.35 -53.01,53.01 -57.93,-30.65 -22.35,4.92 -53.01,-53.01zm-106.02 -13.26c0,246.44 318.04,207 318.04,26.5 0,-252.62 -318.04,-202.72 -318.04,-26.5z"/>
      <path class="fil0" d="M-0 530.08c0,86.84 106.02,65.4 106.02,-13.25 0,-65.96 -106.02,-47.47 -106.02,13.25z"/>
      <path class="fil0" d="M662.58 3339.45c0,70.63 106.02,70.63 106.02,0 0,-70.63 -106.02,-70.63 -106.02,0z"/>
      <path class="fil0" d="M2199.79 3339.45c0,70.63 106.02,70.63 106.02,0 0,-70.63 -106.02,-70.63 -106.02,0z"/>
      <path class="fil0" d="M2862.38 530.08c0,70.62 106.02,70.62 106.02,0 0,-70.63 -106.02,-70.63 -106.02,0z"/>
    </g>
  </g>
</svg>
