<svg xmlns="http://www.w3.org/2000/svg" viewBox="0 0 70 70" width="60" height="60">
  <path d="M62.4,29.6l-27-12c-0.3-0.1-0.6-0.1-0.8,0l-27,12C7.2,29.7,7,30.1,7,30.5s0.2,0.8,0.6,0.9l6.4,2.8v5.1l-2,10.9
c-0.1,0.3,0,0.6,0.2,0.8c0.2,0.2,0.5,0.4,0.8,0.4h4c0.3,0,0.6-0.1,0.8-0.4c0.2-0.2,0.3-0.5,0.2-0.8l-2-10.9v-4.3l4,1.8v8.6
c0,3.5,7.4,7,15,7c7.6,0,15-3.5,15-7v-8.6l12.4-5.5c0.4-0.2,0.6-0.5,0.6-0.9S62.8,29.7,62.4,29.6z M14.2,49.5l0.8-4.4l0.8,4.4H14.2z
M48,45.5c0,1.7-5.6,5-13,5c-7.4,0-13-3.3-13-5v-7.7l12.6,5.6c0.1,0.1,0.3,0.1,0.4,0.1c0.1,0,0.3,0,0.4-0.1L48,37.8V45.5z M35,41.4
l-17.5-7.8l10.9-4.2c0.5-0.2,0.8-0.8,0.6-1.3c-0.2-0.5-0.8-0.8-1.3-0.6l-12.7,4.9l-4.4-2L35,19.6l24.5,10.9L35,41.4z"/>
</svg>
